<?xml version="1.0" encoding="UTF-8"?>
<svg width="52px" height="46px" viewBox="0 0 52 46" version="1.1" xmlns="http://www.w3.org/2000/svg" xmlns:xlink="http://www.w3.org/1999/xlink">
    <!-- Generator: Sketch 58 (84663) - https://sketch.com -->
    <title>building</title>
    <desc>Created with Sketch.</desc>
    <g id="Page-1" stroke="none" stroke-width="1" fill="none" fill-rule="evenodd">
        <g id="Desktop-HD" transform="translate(-503.000000, -167.000000)" fill="#F3B908">
            <g id="Group-5" transform="translate(172.000000, 156.000000)">
                <g id="Group-2" transform="translate(331.000000, 11.000000)">
                    <g id="domain" transform="translate(-0.000000, 0.000000)">
                        <path d="M25.525,10.21 L25.525,3.55271368e-15 L0,3.55271368e-15 L0,45.945 L51.05,45.945 L51.05,10.21 L25.525,10.21 L25.525,10.21 Z M10.21,40.84 L5.105,40.84 L5.105,35.735 L10.21,35.735 L10.21,40.84 L10.21,40.84 Z M10.21,30.63 L5.105,30.63 L5.105,25.525 L10.21,25.525 L10.21,30.63 L10.21,30.63 Z M10.21,20.42 L5.105,20.42 L5.105,15.315 L10.21,15.315 L10.21,20.42 L10.21,20.42 Z M10.21,10.21 L5.105,10.21 L5.105,5.105 L10.21,5.105 L10.21,10.21 L10.21,10.21 Z M20.42,40.84 L15.315,40.84 L15.315,35.735 L20.42,35.735 L20.42,40.84 L20.42,40.84 Z M20.42,30.63 L15.315,30.63 L15.315,25.525 L20.42,25.525 L20.42,30.63 L20.42,30.63 Z M20.42,20.42 L15.315,20.42 L15.315,15.315 L20.42,15.315 L20.42,20.42 L20.42,20.42 Z M20.42,10.21 L15.315,10.21 L15.315,5.105 L20.42,5.105 L20.42,10.21 L20.42,10.21 Z M45.945,40.84 L25.525,40.84 L25.525,35.735 L30.63,35.735 L30.63,30.63 L25.525,30.63 L25.525,25.525 L30.63,25.525 L30.63,20.42 L25.525,20.42 L25.525,15.315 L45.945,15.315 L45.945,40.84 L45.945,40.84 Z M40.84,20.42 L35.735,20.42 L35.735,25.525 L40.84,25.525 L40.84,20.42 L40.84,20.42 Z M40.84,30.63 L35.735,30.63 L35.735,35.735 L40.84,35.735 L40.84,30.63 L40.84,30.63 Z" id="building"></path>
                    </g>
                </g>
            </g>
        </g>
    </g>
</svg>