<?xml version="1.0" encoding="UTF-8"?>
<svg width="52px" height="57px" viewBox="0 0 52 57" version="1.1" xmlns="http://www.w3.org/2000/svg" xmlns:xlink="http://www.w3.org/1999/xlink">
    <!-- Generator: Sketch 58 (84663) - https://sketch.com -->
    <title>date</title>
    <desc>Created with Sketch.</desc>
    <g id="Page-1" stroke="none" stroke-width="1" fill="none" fill-rule="evenodd">
        <g id="Desktop-HD" transform="translate(-711.000000, -502.000000)" fill="#F3B908">
            <g id="date" transform="translate(711.000000, 502.000000)">
                <path d="M45.3777778,5.67222222 L42.5416667,5.67222222 L42.5416667,0 L36.8694444,0 L36.8694444,5.67222222 L14.1805556,5.67222222 L14.1805556,0 L8.50833333,0 L8.50833333,5.67222222 L5.67222222,5.67222222 C2.5525,5.67222222 0,8.22472222 0,11.3444444 L0,51.05 C0,54.1697222 2.5525,56.7222222 5.67222222,56.7222222 L45.3777778,56.7222222 C48.4975,56.7222222 51.05,54.1697222 51.05,51.05 L51.05,11.3444444 C51.05,8.22472222 48.4975,5.67222222 45.3777778,5.67222222 L45.3777778,5.67222222 Z M45.3777778,51.05 L5.67222222,51.05 L5.67222222,19.8527778 L45.3777778,19.8527778 L45.3777778,51.05 L45.3777778,51.05 Z" id="Shape"></path>
                <rect id="Rectangle-path" x="11.3444444" y="25.525" width="14.1805556" height="14.1805556"></rect>
            </g>
        </g>
    </g>
</svg>