<?xml version="1.0" encoding="UTF-8"?>
<svg width="52px" height="60px" viewBox="0 0 52 60" version="1.1" xmlns="http://www.w3.org/2000/svg" xmlns:xlink="http://www.w3.org/1999/xlink">
    <!-- Generator: Sketch 58 (84663) - https://sketch.com -->
    <title>timer</title>
    <desc>Created with Sketch.</desc>
    <g id="Page-1" stroke="none" stroke-width="1" fill="none" fill-rule="evenodd">
        <g id="Desktop-HD" transform="translate(-844.000000, -161.000000)" fill="#F3B908">
            <g id="Group-5" transform="translate(172.000000, 156.000000)">
                <g id="Group-3" transform="translate(672.000000, 0.000000)">
                    <g id="timer" transform="translate(0.000000, 5.000000)">
                        <path d="M34.0333333,0 L17.0166667,0 L17.0166667,5.67222222 L34.0333333,5.67222222 L34.0333333,0 L34.0333333,0 Z M22.6888889,36.8694444 L28.3611111,36.8694444 L28.3611111,19.8527778 L22.6888889,19.8527778 L22.6888889,36.8694444 L22.6888889,36.8694444 Z M45.3777778,18.1511111 L49.6319444,14.1805556 C48.2138889,12.7625 46.7958333,11.3444444 45.3777778,10.21 L41.4072222,14.1805556 C37.1530556,10.7772222 31.4808333,8.50833333 25.525,8.50833333 C11.3444444,8.50833333 1.77635684e-15,19.8527778 1.77635684e-15,34.0333333 C1.77635684e-15,48.2138889 11.3444444,59.5583333 25.525,59.5583333 C39.7055556,59.5583333 51.05,48.2138889 51.05,34.0333333 C51.05,28.0775 49.0647222,22.4052778 45.3777778,18.1511111 L45.3777778,18.1511111 Z M25.525,53.8861111 C14.4641667,53.8861111 5.67222222,45.0941667 5.67222222,34.0333333 C5.67222222,22.9725 14.4641667,14.1805556 25.525,14.1805556 C36.5858333,14.1805556 45.3777778,22.9725 45.3777778,34.0333333 C45.3777778,45.0941667 36.5858333,53.8861111 25.525,53.8861111 L25.525,53.8861111 Z" id="Shape"></path>
                    </g>
                </g>
            </g>
        </g>
    </g>
</svg>