<?xml version="1.0" encoding="UTF-8"?>
<svg width="52px" height="61px" viewBox="0 0 52 61" version="1.1" xmlns="http://www.w3.org/2000/svg" xmlns:xlink="http://www.w3.org/1999/xlink">
    <!-- Generator: Sketch 58 (84663) - https://sketch.com -->
    <title>train</title>
    <desc>Created with Sketch.</desc>
    <g id="Page-1" stroke="none" stroke-width="1" fill="none" fill-rule="evenodd">
        <g id="Desktop-HD" transform="translate(-172.000000, -160.000000)" fill="#F3B908">
            <g id="Group-5" transform="translate(172.000000, 156.000000)">
                <g id="Group" transform="translate(0.000000, 4.000000)">
                    <path d="M0,12.763158 L0,43.0756583 C0,49.1381583 5.1052632,54.2434215 11.1677633,54.2434215 L6.381579,59.0296058 L6.381579,60.6250005 L44.671053,60.6250005 L44.671053,59.0296058 L39.8848688,54.2434215 C45.9473688,54.2434215 51.052632,49.1381583 51.052632,43.0756583 L51.052632,12.763158 C51.052632,1.59539475 39.5657898,0 25.526316,0 C11.4868422,0 0,1.59539475 0,12.763158 Z M6.381579,43.0756583 C6.381579,40.5230267 8.61513165,38.289474 11.1677633,38.289474 C13.7203949,38.289474 15.9539475,40.5230267 15.9539475,43.0756583 C15.9539475,45.6282899 13.7203949,47.8618425 11.1677633,47.8618425 C8.61513165,47.8618425 6.381579,45.6282899 6.381579,43.0756583 Z M6.381579,28.7171055 L6.381579,12.763158 L22.3355265,12.763158 L22.3355265,28.7171055 L6.381579,28.7171055 Z M35.0986845,43.0756583 C35.0986845,40.5230267 37.3322372,38.289474 39.8848688,38.289474 C42.4375004,38.289474 44.671053,40.5230267 44.671053,43.0756583 C44.671053,45.6282899 42.4375004,47.8618425 39.8848688,47.8618425 C37.3322372,47.8618425 35.0986845,45.6282899 35.0986845,43.0756583 Z M28.7171055,28.7171055 L28.7171055,12.763158 L44.671053,12.763158 L44.671053,28.7171055 L28.7171055,28.7171055 Z" id="train"></path>
                </g>
            </g>
        </g>
    </g>
</svg>